<?xml version="1.0" encoding="utf-8"?>
<!-- Generator: Adobe Illustrator 23.0.1, SVG Export Plug-In . SVG Version: 6.00 Build 0)  -->
<svg version="1.1" id="Layer_1" xmlns="http://www.w3.org/2000/svg" xmlns:xlink="http://www.w3.org/1999/xlink" x="0px" y="0px"
	 viewBox="0 0 97.7 97.7" style="enable-background:new 0 0 97.7 97.7;" xml:space="preserve">
<style type="text/css">
	.st0{fill:#55C1FF;}
	.st1{fill:#00BDF5;}
</style>
<g>
	<g>
		<path class="st0" d="M52.2,79.8c-0.6,0-1.1,0-1.6,0c-9.3,0-18.6,0-27.9,0c-5.1,0-8-2.9-8-7.9c0-14.5,0-29,0-43.5
			c0-5.4,2.9-8.2,8.2-8.2c2.1,0,4.2,0,6.5,0c0-0.8,0-1.6,0-2.3c0.1-1.7,1-2.7,2.4-2.7c1.6,0,2.4,0.9,2.4,2.7c0,2.3,0,4.6,0,6.9
			c0,1.4-0.4,2.4-1.9,2.6c-1.4,0.2-2.4-0.3-2.9-1.7c-0.1-0.4-0.7-0.8-1.1-0.8c-2-0.1-4-0.1-6,0s-2.9,1-2.9,3c0,1.3,0,2.7,0,4
			c0,0.2,0.1,0.4,0.1,0.7c18.2,0,36.4,0,54.7,0c0-1.8,0-3.6,0-5.3c0-1.3-0.9-2.1-2.1-2.3c-1.2-0.2-2.5-0.2-3.8-0.3
			c0-1.4,0-2.9,0-4.5c1.5,0,3-0.1,4.5,0c3.5,0.4,6,2.9,6.3,6.5c0.2,2.2,0.1,4.4,0.2,6.6c0,6.1,0,12.2,0,18.6
			c-1.7-0.4-3.2-0.8-4.9-1.2c0-4.6,0-9.2,0-13.9c-18.3,0-36.5,0-54.8,0c0,0.6-0.1,1.1-0.1,1.6c0,10.9,0,21.8,0,32.7
			c0,3.3,0.7,3.9,3.9,3.9c8.7,0,17.4,0,26.1,0c1,0,1.5,0.3,1.7,1.3C51.5,77.4,51.9,78.5,52.2,79.8z"/>
		<path class="st0" d="M89,65.6c3.3,9.2-0.7,18.8-9.4,23.1c-8.2,4-18.6,1-23.4-6.9c-4.9-7.9-3.5-18.1,4.4-24.4
			c6.6-5.3,16.9-4.7,22.2,0.1c-0.1,0.1-0.3,0.1-0.4,0.2c-1.5,1.5-2.8,1.6-4.9,0.7c-5.3-2.3-10.5-1.6-15,2.1
			c-4.8,3.9-6.6,9.2-5.1,15.2c1.4,5.7,5.2,9.5,11,10.8c10.1,2.4,19.4-5.9,18.2-16.2C86.2,68,87.9,67.3,89,65.6z"/>
		<path class="st0" d="M71.6,69.8c3.6-2.8,7.2-5.6,10.8-8.3c1.8-1.3,3.7-2.5,5.5-3.8c0.4-0.2,0.8-0.5,1.2-0.5
			c0.5-0.1,1.2-0.1,1.3,0.1c0.2,0.4,0.2,1.1,0,1.5c-0.4,0.8-1,1.6-1.6,2.3c-4.8,5.2-9.5,10.4-14.4,15.6c-2.3,2.4-4.7,2.2-6.5-0.7
			c-1.6-2.5-3-5.2-4.4-7.8c-0.3-0.5-0.4-1.1-0.5-1.7c-0.2-1.4,0.7-2.1,1.8-1.5c1.6,0.9,3.1,2,4.5,3.1C70.2,68.7,70.8,69.3,71.6,69.8
			z"/>
		<path class="st0" d="M59.6,20.2c0-1.1-0.1-2,0-2.8c0.1-1.3,1.1-2.3,2.4-2.2c1.3,0,2.3,0.8,2.4,2.1c0.1,2.7,0.1,5.5,0,8.2
			c0,1.2-0.9,1.9-2.1,2c-1.2,0.1-2-0.3-2.5-1.4c-0.2-0.3-0.2-0.7-0.3-1.2c-7,0-13.9,0-21,0c0-1.5,0-3,0-4.6
			C45.5,20.2,52.5,20.2,59.6,20.2z"/>
		<path class="st0" d="M30.5,68.9c-1.2,0-2.5,0-3.7,0c-1.1,0-1.8-0.6-1.8-1.8c0-1.6,0-3.3,0-4.9c0-1.1,0.7-1.8,1.8-1.8
			c2.5,0,5,0,7.5,0c1.2,0,1.8,0.6,1.8,1.8c0,1.6,0,3.2,0,4.8c0,1.3-0.7,1.8-1.9,1.8C33,68.9,31.7,68.9,30.5,68.9z"/>
		<path class="st0" d="M46.8,54.1c-1.1,0-2.3-0.1-3.4,0c-1.3,0.1-1.9-0.6-2-1.7c-0.1-1.7-0.1-3.5,0-5.2c0.1-1.1,0.8-1.6,1.9-1.6
			c2.4,0,4.9,0,7.3,0c1.2,0,1.8,0.6,1.8,1.9c0,1.6,0,3.2,0,4.8c0,1.2-0.6,1.9-1.9,1.9C49.3,54.2,48.1,54.2,46.8,54.1
			C46.8,54.2,46.8,54.1,46.8,54.1z"/>
		<path class="st0" d="M36,50c-0.1,3.6,0.9,4.4-4.1,4.1c-1.8-0.1-3.6,0-5.3,0c-1.1,0-1.6-0.7-1.7-1.7c0-1.7-0.1-3.4,0-5.1
			c0-1.1,0.7-1.6,1.7-1.6c2.5,0,5.1,0,7.6,0c1.1,0,1.7,0.6,1.7,1.8C36,48.3,36,49.1,36,50z"/>
		<path class="st0" d="M50.8,68.9c-2.5,0-4.9,0-7.4,0c-1.3,0-2-0.6-2-2c0-1.5,0-3,0-4.5c0-1.4,0.7-2,2-2c2.2,0,4.4,0,6.6,0
			c2.2,0,3,1,2.4,3.1C52,65.3,51.4,67,50.8,68.9z"/>
		<path class="st0" d="M68.9,50.4c-2.9,1.3-5.6,2.4-8.2,3.5c-1.5,0.7-2.9-0.1-2.9-1.8c0-1.5,0-3.1,0-4.6c0-1.3,0.6-1.9,1.9-2
			c2.4,0,4.9,0,7.3,0c1.2,0,1.9,0.6,1.9,1.8C68.9,48.5,68.9,49.6,68.9,50.4z"/>
	</g>
	<g>
		<path class="st1" d="M52.2,79.8c-0.6,0-1.1,0-1.6,0c-9.3,0-18.6,0-27.9,0c-5.1,0-8-2.9-8-7.9c0-14.5,0-29,0-43.5
			c0-5.4,2.9-8.2,8.2-8.2c2.1,0,4.2,0,6.5,0c0-0.8,0-1.6,0-2.3c0.1-1.7,1-2.7,2.4-2.7c1.6,0,2.4,0.9,2.4,2.7c0,2.3,0,4.6,0,6.9
			c0,1.4-0.4,2.4-1.9,2.6c-1.4,0.2-2.4-0.3-2.9-1.7c-0.1-0.4-0.7-0.8-1.1-0.8c-2-0.1-4-0.1-6,0s-2.9,1-2.9,3c0,1.3,0,2.7,0,4
			c0,0.2,0.1,0.4,0.1,0.7c18.2,0,36.4,0,54.7,0c0-1.8,0-3.6,0-5.3c0-1.3-0.9-2.1-2.1-2.3c-1.2-0.2-2.5-0.2-3.8-0.3
			c0-1.4,0-2.9,0-4.5c1.5,0,3-0.1,4.5,0c3.5,0.4,6,2.9,6.3,6.5c0.2,2.2,0.1,4.4,0.2,6.6c0,6.1,0,12.2,0,18.6
			c-1.7-0.4-3.2-0.8-4.9-1.2c0-4.6,0-9.2,0-13.9c-18.3,0-36.5,0-54.8,0c0,0.6-0.1,1.1-0.1,1.6c0,10.9,0,21.8,0,32.7
			c0,3.3,0.7,3.9,3.9,3.9c8.7,0,17.4,0,26.1,0c1,0,1.5,0.3,1.7,1.3C51.5,77.4,51.9,78.5,52.2,79.8z"/>
		<path class="st1" d="M89,65.6c3.3,9.2-0.7,18.8-9.4,23.1c-8.2,4-18.6,1-23.4-6.9c-4.9-7.9-3.5-18.1,4.4-24.4
			c6.6-5.3,16.9-4.7,22.2,0.1c-0.1,0.1-0.3,0.1-0.4,0.2c-1.5,1.5-2.8,1.6-4.9,0.7c-5.3-2.3-10.5-1.6-15,2.1
			c-4.8,3.9-6.6,9.2-5.1,15.2c1.4,5.7,5.2,9.5,11,10.8c10.1,2.4,19.4-5.9,18.2-16.2C86.2,68,87.9,67.3,89,65.6z"/>
		<path class="st1" d="M71.6,69.8c3.6-2.8,7.2-5.6,10.8-8.3c1.8-1.3,3.7-2.5,5.5-3.8c0.4-0.2,0.8-0.5,1.2-0.5
			c0.5-0.1,1.2-0.1,1.3,0.1c0.2,0.4,0.2,1.1,0,1.5c-0.4,0.8-1,1.6-1.6,2.3c-4.8,5.2-9.5,10.4-14.4,15.6c-2.3,2.4-4.7,2.2-6.5-0.7
			c-1.6-2.5-3-5.2-4.4-7.8c-0.3-0.5-0.4-1.1-0.5-1.7c-0.2-1.4,0.7-2.1,1.8-1.5c1.6,0.9,3.1,2,4.5,3.1C70.2,68.7,70.8,69.3,71.6,69.8
			z"/>
		<path class="st1" d="M59.6,20.2c0-1.1-0.1-2,0-2.8c0.1-1.3,1.1-2.3,2.4-2.2c1.3,0,2.3,0.8,2.4,2.1c0.1,2.7,0.1,5.5,0,8.2
			c0,1.2-0.9,1.9-2.1,2c-1.2,0.1-2-0.3-2.5-1.4c-0.2-0.3-0.2-0.7-0.3-1.2c-7,0-13.9,0-21,0c0-1.5,0-3,0-4.6
			C45.5,20.2,52.5,20.2,59.6,20.2z"/>
		<path class="st1" d="M30.5,68.9c-1.2,0-2.5,0-3.7,0c-1.1,0-1.8-0.6-1.8-1.8c0-1.6,0-3.3,0-4.9c0-1.1,0.7-1.8,1.8-1.8
			c2.5,0,5,0,7.5,0c1.2,0,1.8,0.6,1.8,1.8c0,1.6,0,3.2,0,4.8c0,1.3-0.7,1.8-1.9,1.8C33,68.9,31.7,68.9,30.5,68.9z"/>
		<path class="st1" d="M46.8,54.1c-1.1,0-2.3-0.1-3.4,0c-1.3,0.1-1.9-0.6-2-1.7c-0.1-1.7-0.1-3.5,0-5.2c0.1-1.1,0.8-1.6,1.9-1.6
			c2.4,0,4.9,0,7.3,0c1.2,0,1.8,0.6,1.8,1.9c0,1.6,0,3.2,0,4.8c0,1.2-0.6,1.9-1.9,1.9C49.3,54.2,48.1,54.2,46.8,54.1
			C46.8,54.2,46.8,54.1,46.8,54.1z"/>
		<path class="st1" d="M36,50c-0.1,3.6,0.9,4.4-4.1,4.1c-1.8-0.1-3.6,0-5.3,0c-1.1,0-1.6-0.7-1.7-1.7c0-1.7-0.1-3.4,0-5.1
			c0-1.1,0.7-1.6,1.7-1.6c2.5,0,5.1,0,7.6,0c1.1,0,1.7,0.6,1.7,1.8C36,48.3,36,49.1,36,50z"/>
		<path class="st1" d="M50.8,68.9c-2.5,0-4.9,0-7.4,0c-1.3,0-2-0.6-2-2c0-1.5,0-3,0-4.5c0-1.4,0.7-2,2-2c2.2,0,4.4,0,6.6,0
			c2.2,0,3,1,2.4,3.1C52,65.3,51.4,67,50.8,68.9z"/>
		<path class="st1" d="M68.9,50.4c-2.9,1.3-5.6,2.4-8.2,3.5c-1.5,0.7-2.9-0.1-2.9-1.8c0-1.5,0-3.1,0-4.6c0-1.3,0.6-1.9,1.9-2
			c2.4,0,4.9,0,7.3,0c1.2,0,1.9,0.6,1.9,1.8C68.9,48.5,68.9,49.6,68.9,50.4z"/>
	</g>
</g>
</svg>
