<?xml version="1.0" encoding="utf-8"?>
<!-- Generator: Adobe Illustrator 23.0.1, SVG Export Plug-In . SVG Version: 6.00 Build 0)  -->
<svg version="1.1" id="Layer_1" xmlns="http://www.w3.org/2000/svg" xmlns:xlink="http://www.w3.org/1999/xlink" x="0px" y="0px"
	 viewBox="0 0 377.3 492.7" style="enable-background:new 0 0 377.3 492.7;" xml:space="preserve">
<style type="text/css">
	.st0{fill:#FFFFFF;}
	.st1{fill:#777777;stroke:#FFFFFF;stroke-width:12;stroke-miterlimit:10;}
	.st2{fill:#777777;}
	.st3{font-family:'ArialRoundedMTBold';}
	.st4{font-size:221.4568px;}
</style>
<path class="st0" d="M188.7,35.8c-82.6,0-148.8,66.3-150.2,147.8c-1.4,84.1,65,152.9,150.5,153.3c81.5,0.4,149.3-67.8,149.8-148.9
	C339.2,104.3,271.9,35.8,188.7,35.8z"/>
<path class="st1" d="M188.5,479.1c-6.6-7.3-13-14.3-19.5-21.5c-31-34.8-60.5-70.8-87.3-108.9c-22-31.4-42.1-63.9-57.7-99
	c-19.3-43.4-17.5-86,1.6-128.7C52.2,61.3,98.7,27,162.1,16.1c53.2-9.1,100.9,6.3,142,40.8c33.6,28.3,53.8,64.8,61,108.1
	c4.6,27.5,0.5,54.2-9.9,79.9c-14,34.6-33.4,66.1-54.5,96.6c-33.1,47.6-70.1,92-109.2,134.7C190.6,477.2,189.6,478,188.5,479.1z"/>
<path class="st0" d="M188.7,47.9c-77,0-138.8,61.9-140.1,137.9c-1.3,78.4,60.6,142.6,140.4,143c76.1,0.4,139.3-63.2,139.7-138.9
	C329.2,111.8,266.4,47.9,188.7,47.9z"/>
<text transform="matrix(1 0 0 1 126.5146 266.9873)" class="st2 st3 st4">?</text>
</svg>
