<svg id="Layer_1" data-name="Layer 1" xmlns="http://www.w3.org/2000/svg" width="505.396" height="505.5661" viewBox="0 0 505.396 505.5661">
  <title>icon_play</title>
  <path d="M259.9758,505.5661H245.9482a10.9479,10.9479,0,0,0-3.1588-.9666c-17.6933.2221-34.9849-2.7754-51.9937-7.146-54.8933-14.1053-100.2051-43.4166-135.5168-87.6546C25.7962,372.8634,8.3043,330.7671,2.3843,283.6766A246.3114,246.3114,0,0,1,5.29,202.66C17.3823,144.0563,46.7261,95.381,92.8676,57.281,134.196,23.1553,182.1453,4.5133,235.4463.6507a244.838,244.838,0,0,1,80.5249,7.4932Q398.8977,30.028,451.9584,97.222c30.0274,38.0122,47.1838,81.4987,52.386,129.5874a244.9414,244.9414,0,0,1-4.5221,79.3427c-12.9023,58.7185-42.928,107.0011-89.8185,144.2967-42.8141,34.0533-91.7912,52.6336-146.8419,54.1447A12.5129,12.5129,0,0,0,259.9758,505.5661ZM190.34,257.1336c0,29.8.091,59.6-.0872,89.3985-.0307,5.1317,1.0962,9.2576,5.6123,11.9237,4.7175,2.7849,8.93.8758,13.0845-1.6458,5.8034-3.5225,11.6744-6.9343,17.5309-10.3688q68.025-39.8914,135.965-79.9262a13.9266,13.9266,0,0,0,5.674-8.122c1.4648-6.3885-3.2178-9.7722-8.1077-12.6214q-23.3829-13.6241-46.7455-27.2832Q261.034,187.912,208.7977,157.3427c-11.1121-6.4678-18.451-1.9762-18.4552,10.9762Q190.3281,212.7263,190.34,257.1336Z" transform="translate(-0.3382 0)"/>
  <path d="M190.34,257.1336q0-44.4074.003-88.8147c.0042-12.9524,7.3431-17.444,18.4552-10.9762q52.3083,30.4455,104.4682,61.1457,23.355,13.6721,46.7455,27.2832c4.89,2.8492,9.5725,6.2329,8.1077,12.6214a13.9266,13.9266,0,0,1-5.674,8.122Q294.606,306.72,226.48,346.4412c-5.8565,3.4345-11.7275,6.8463-17.5309,10.3688-4.1543,2.5216-8.367,4.4307-13.0845,1.6458-4.5161-2.6661-5.643-6.792-5.6123-11.9237C190.4306,316.7335,190.34,286.9333,190.34,257.1336Z" transform="translate(-0.3382 0)" fill="#fff"/>
</svg>
