<svg id="Layer_1" data-name="Layer 1" xmlns="http://www.w3.org/2000/svg" width="505.8481" height="505.8952" viewBox="0 0 505.8481 505.8952">
  <title>icon_info</title>
  <path d="M190.34,257.1336q0-44.4074.003-88.8147c.0042-12.9524,7.3431-17.444,18.4552-10.9762q52.3083,30.4455,104.4682,61.1457,23.355,13.6721,46.7455,27.2832c4.89,2.8492,9.5725,6.2329,8.1077,12.6214a13.9266,13.9266,0,0,1-5.674,8.122Q294.606,306.72,226.48,346.4412c-5.8565,3.4345-11.7275,6.8463-17.5309,10.3688-4.1543,2.5216-8.367,4.4307-13.0845,1.6458-4.5161-2.6661-5.643-6.792-5.6123-11.9237C190.4306,316.7335,190.34,286.9333,190.34,257.1336Z" transform="translate(-0.1519 -0.1355)" fill="#fff"/>
  <path d="M253.1481,505.9249C125.4049,509.8849.1051,402.1627.1519,253.8483.1958,115.0157,112.82.908,250.5635.14A253.6085,253.6085,0,0,1,505.9989,253.7243C506.4365,400.9542,381.4057,509.82,253.1481,505.9249Zm55.1931-128.8678c-7.6947,1.1561-14.1631,2.6757-20.6919,3.0075-20.695,1.0518-26.8307-5.2785-23.5266-25.6768,2.3124-14.2758,6.3463-28.2752,9.67-42.3842,4.6823-19.8766,11.0223-39.5233,13.7508-59.6616,3.9434-29.1044-14.0944-47.9724-43.36-48.913-18.2918-.5878-34.9272,5.4207-51.9649,10.8151-10.9954,3.4813-13.5305,10.4975-14.2109,20.896,5.3557-1.1813,9.7593-2.4464,14.2519-3.0614a82.7886,82.7886,0,0,1,13.809-.8007c11.0168.3524,15.6181,4.5794,16.5679,15.5323a45.9427,45.9427,0,0,1-.7251,13.7632c-3.0109,13.5076-6.7586,26.85-9.8442,40.3421-4.6943,20.5265-10.8031,40.93-13.15,61.7422-2.9519,26.179,14.317,43.0876,40.8628,45.2611,19.87,1.627,37.5112-5.095,55.7745-10.9347C306.45,393.5,308.6914,386.95,308.3412,377.0571ZM275.357,169.2548c21.5687-.0008,38.592-15.4783,38.7672-35.2468.1709-19.2909-17.7856-36.0534-38.4286-35.8731-21.8694.191-38.7323,16.2517-38.5023,36.6707C237.4135,154.3591,253.9163,169.2556,275.357,169.2548Z" transform="translate(-0.1519 -0.1355)"/>
  <path d="M308.3412,377.0571c.35,9.8931-1.8916,16.4433-12.7866,19.9271-18.2633,5.84-35.9045,12.5617-55.7745,10.9347-26.5458-2.1735-43.8147-19.0821-40.8628-45.2611,2.3468-20.8122,8.4556-41.2157,13.15-61.7422,3.0856-13.4923,6.8333-26.8345,9.8442-40.3421a45.9427,45.9427,0,0,0,.7251-13.7632c-.95-10.9529-5.5511-15.18-16.5679-15.5323a82.7886,82.7886,0,0,0-13.809.8007c-4.4926.615-8.8962,1.88-14.2519,3.0614.68-10.3985,3.2155-17.4147,14.2109-20.896,17.0377-5.3944,33.6731-11.4029,51.9649-10.8151,29.2655.9406,47.3033,19.8086,43.36,48.913-2.7285,20.1383-9.0685,39.785-13.7508,59.6616-3.3236,14.109-7.3575,28.1084-9.67,42.3842-3.3041,20.3983,2.8316,26.7286,23.5266,25.6768C294.1781,379.7328,300.6465,378.2132,308.3412,377.0571Z" transform="translate(-0.1519 -0.1355)" fill="#fff"/>
  <path d="M275.357,169.2548c-21.4407.0008-37.9435-14.8957-38.1637-34.4492-.23-20.419,16.6329-36.48,38.5023-36.6707,20.643-.18,38.5995,16.5822,38.4286,35.8731C313.949,153.7765,296.9257,169.254,275.357,169.2548Z" transform="translate(-0.1519 -0.1355)" fill="#fff"/>
</svg>
