<?xml version="1.0" encoding="utf-8"?>
<!-- Generator: Adobe Illustrator 23.0.1, SVG Export Plug-In . SVG Version: 6.00 Build 0)  -->
<svg version="1.1" id="Capa_1" xmlns="http://www.w3.org/2000/svg" xmlns:xlink="http://www.w3.org/1999/xlink" x="0px" y="0px"
	 viewBox="0 0 55.867 55.867" style="enable-background:new 0 0 55.867 55.867;" xml:space="preserve">
<path d="M21.3009,38.5384c-0.0825,0-0.165-0.0255-0.2343-0.0761c-0.1227-0.0893-0.1841-0.2403-0.1582-0.3897l1.2316-7.1794
	l-5.2162-5.0839c-0.1084-0.106-0.1474-0.2642-0.1008-0.408c0.047-0.1442,0.1717-0.2494,0.322-0.2714l7.2081-1.0475l3.2239-6.5319
	c0.0669-0.1363,0.2056-0.2223,0.357-0.2223l0,0c0.1518,0,0.2905,0.0861,0.357,0.2223l3.2235,6.5319l7.2085,1.0475
	c0.1502,0.0219,0.2745,0.1267,0.322,0.2714c0.0466,0.1438,0.008,0.3024-0.1008,0.408L33.728,30.894l1.2312,7.179
	c0.0255,0.1494-0.0359,0.3004-0.1582,0.3897c-0.1227,0.0901-0.2857,0.1016-0.42,0.0303l-6.4471-3.3893l-6.4479,3.3893
	C21.428,38.5233,21.3643,38.5384,21.3009,38.5384z M18.0582,25.8021l4.7879,4.6672c0.0936,0.0912,0.1367,0.2235,0.1144,0.3526
	l-1.1304,6.5897l5.9187-3.1112c0.116-0.0614,0.2542-0.0614,0.371,0l5.9179,3.1112l-1.13-6.5897
	c-0.0223-0.1291,0.0207-0.261,0.1144-0.3526l4.7879-4.6672l-6.6164-0.9615c-0.1299-0.0187-0.2419-0.1004-0.3-0.218l-2.9594-5.9952
	l-2.9594,5.9956c-0.0582,0.1175-0.1701,0.1992-0.3,0.218L18.0582,25.8021z"/>
</svg>
