<?xml version="1.0" encoding="utf-8"?>
<!-- Generator: Adobe Illustrator 23.0.1, SVG Export Plug-In . SVG Version: 6.00 Build 0)  -->
<svg version="1.1" id="Capa_1" xmlns="http://www.w3.org/2000/svg" xmlns:xlink="http://www.w3.org/1999/xlink" x="0px" y="0px"
	 viewBox="0 0 55.867 55.867" style="enable-background:new 0 0 55.867 55.867;" xml:space="preserve">
<style type="text/css">
	.st0{fill:#FFFFFF;stroke:#000000;stroke-miterlimit:10;}
</style>
<path class="st0" d="M35.4902,30.1349c-0.0412,0.6126-0.1202,1.2221-0.2366,1.825c-0.3718,1.5209-1.825,2.7037-3.4135,2.7037
	c-3.2107,0.0338-6.4552,0.0338-9.6659,0c-1.9264-0.0338-3.5149-1.7236-3.5149-3.6501v-7.1987
	c-0.0137-2.0397,1.6288-3.7044,3.6685-3.718c0.0276-0.0002,0.0553-0.0001,0.0829,0.0004h9.0576c2.332,0,3.8866,1.5885,3.9204,3.8866
	c0,0.2366,0.0338,0.4394,0.0338,0.8111c1.2843-0.7435,2.501-1.4195,3.6839-2.0954c1.1153-0.6422,1.5209-0.4056,1.5209,0.8787v7.8071
	c0,1.1491-0.4394,1.3857-1.4195,0.8449c-1.2167-0.6759-2.4334-1.3857-3.6501-2.0954C35.5578,30.1011,35.524,30.1011,35.4902,30.1349
	z"/>
</svg>
