<svg id="Layer_1" data-name="Layer 1" xmlns="http://www.w3.org/2000/svg" width="506.7443" height="506.7436" viewBox="0 0 506.7443 506.7436">
  <title>icon_unlinked</title>
  <path d="M0,253.3822C-.1362,113.5127,113.1875.125,253.24,0,393.1959-.1246,506.343,112.8469,506.7432,253.11c.3993,139.9111-113.3843,253.7583-253.4915,253.6334C113.4112,506.77.0266,393.4284,0,253.588Q0,253.4851,0,253.3822Z" transform="translate(0 0)" fill="#fff"/>
  <path d="M116.78,312.0864c.2092-14.1323,6.7637-30.7091,20.1889-44.4,10.5351-10.7434,21.23-21.3308,31.89-31.9509,7.3108-7.2833,17.4528-7.6442,24.0132-.9308,6.6287,6.7834,6.1492,16.6469-1.21,24.0428C181.139,269.4233,170.4678,279.8546,160.09,290.57c-10.4925,10.8339-13.5991,23.8362-8.9814,38.0984,4.5783,14.14,14.727,22.7821,29.3664,25.3675,12.5949,2.2245,23.6973-1.5084,32.83-10.5184,10.5286-10.3873,20.9238-20.91,31.3821-31.3681,7.3966-7.3969,17.2512-7.8484,23.9869-1.11,6.7676,6.7709,6.4133,16.5654-1.0016,24.0478q-15.8877,16.0322-31.91,31.9306a70.0067,70.0067,0,0,1-76.4861,14.4864C133.5176,370.6518,116.804,345.3141,116.78,312.0864ZM269.5692,135.3193c-12.5285,11.6435-24.3963,24.0037-36.419,36.1827-3.978,4.03-5.1695,9.1477-3.8786,14.6647a16.0519,16.0519,0,0,0,27.0851,7.7522c10.7924-10.4959,21.2719-21.3126,31.9615-31.9153,10.6855-10.5986,23.448-14.2018,37.9237-10.08,26.8726,7.6517,35.9253,41.5167,16.5276,61.9225-10.5476,11.0957-21.5995,21.7113-32.3885,32.5787-7.1741,7.2262-7.52,17.117-.9082,23.7505,6.5092,6.53,16.35,6.458,23.4689-.5386,11.38-11.1845,23.0558-22.1255,33.7176-33.97,20.2014-22.4415,24.8067-48.4557,12.7349-75.9939-11.9744-27.3162-34.3855-40.5784-60.72-41.8976C297.9692,118.0614,282.3326,123.4578,269.5692,135.3193Zm41.7394,154.4165q-43.7985-43.758-87.5129-87.6c-3.8161-3.8212-7.5241-7.7605-11.49-11.42a16.0857,16.0857,0,0,0-26.8483,8.5482c-1.4,6.411,1.0061,11.5,5.4862,15.9727q32.4849,32.4325,64.8889,64.946c11.2681,11.28,22.4773,22.62,33.85,33.7943,5.0831,4.9945,11.281,6.1016,17.7971,3.2674a15.2842,15.2842,0,0,0,9.6884-13.9408A18.0361,18.0361,0,0,0,311.3086,289.7358Z" transform="translate(0 0)"/>
</svg>
