<svg id="Layer_1" data-name="Layer 1" xmlns="http://www.w3.org/2000/svg" width="506.7443" height="506.7436" viewBox="0 0 506.7443 506.7436">
  <title>icon_linked</title>
  <path d="M0,253.3822C-.1362,113.5127,113.1875.125,253.24,0,393.1959-.1246,506.343,112.8469,506.7432,253.11c.3993,139.9111-113.3843,253.7583-253.4915,253.6334C113.4112,506.77.0266,393.4284,0,253.588Q0,253.4851,0,253.3822Z" transform="translate(0 0)" fill="#fff"/>
  <path d="M118.7437,305.6614c.2378-17.0506,7.3549-35.1541,21.9279-50.1072,11.7234-12.0292,23.6738-23.8384,35.5933-35.6748,7.9414-7.886,18.7237-8.1233,26.0257-.7236,7.2124,7.3089,6.8062,18.2107-1.0316,26.0913-11.746,11.81-23.712,23.4079-35.252,35.4156a41.1809,41.1809,0,0,0,19.8454,68.7893c15.0764,3.7063,28.2283-.4776,39.2054-11.26,11.6813-11.4737,23.1537-23.16,34.7266-34.7444,5.49-5.4958,11.9614-7.3878,19.3633-4.7252,11.59,4.169,15.7327,19.168,7.1352,28.2246-13.5973,14.3234-27.0012,29.066-42.1471,41.63-24.4429,20.2757-52.3725,23.3179-81.3422,10.2509C135.6231,366.5727,118.8038,339.3622,118.7437,305.6614Zm222.02-179.8105c-29.9216-13.4611-58.4737-8.8357-83.1562,12.9747-13.6214,12.0363-25.9516,25.54-38.7707,38.4746a16.6219,16.6219,0,0,0-4.8558,14.73c1.0912,7.1838,5.1238,12.2262,12.0492,14.4707,6.8824,2.2306,13.1464.726,18.3272-4.4278,12.01-11.9474,23.8337-24.0859,35.987-35.8852C290.9483,155.892,303.83,152.2635,318.2,155.5625c15.2311,3.4968,25.5772,13.0038,30.1883,27.9457,4.6577,15.0928,1.5419,28.9421-9.3621,40.4183-11.7628,12.38-24.0311,24.28-36.1183,36.3507-5.1632,5.1558-6.9575,11.28-4.9249,18.2164,3.8027,12.9774,19.6546,16.9692,29.6367,7.3059,12.0688-11.6834,23.85-23.6661,35.6622-35.6118C378.0641,235.2378,385.5448,217.18,386,192.634,384.6317,163.8727,370.4536,139.208,340.7632,125.8509Zm-23.7706,57.1444c-7.1918-4.9561-16.15-4.0827-22.78,2.468-13.351,13.1924-26.5682,26.52-39.8337,39.7988Q220.2683,259.4074,186.15,293.545c-4.5706,4.5623-7.1761,9.8295-6.14,16.34,1.108,6.9642,5.0528,11.9481,11.76,14.2692,6.88,2.3808,13.1846.8627,18.3753-4.196,8.0845-7.879,15.9894-15.9426,23.9667-23.9316q42.03-42.0924,84.0794-84.1656c3.969-3.9636,6.6243-8.3884,6.5856-15.5978C324.6628,191.5013,322.1179,186.5273,316.9926,182.9953Z" transform="translate(0 0)"/>
</svg>
