<svg id="Layer_1" data-name="Layer 1" xmlns="http://www.w3.org/2000/svg" width="506.8" height="506.8" viewBox="0 0 506.8 506.8">
  <title>icon_home</title>
  <circle cx="253.4" cy="253.4" r="253.4" fill="none"/>
  <circle cx="253.3999" cy="253.3999" r="253.3721" fill="none"/>
  <circle cx="253.3999" cy="253.3999" r="253.3721" fill="none"/>
  <path d="M219.1562,360.079v-5.6178c.0011-19.2021-.06-38.4046.0281-57.6063.0491-10.7036,6.6067-17.1647,17.288-17.2253,10.3033-.0585,20.6071-.0233,30.9107-.0117,12.5687.0141,18.7122,6.106,18.7288,18.6372q.0381,28.3359.0078,56.6718v5.1969c13.5129,0,26.2935,0,39.0741,0,12.6965-.0006,15.852-3.1067,15.8534-15.6247q.0045-36.9991.001-73.9985v-5.9539c5.3029,0,10.1005-.1059,14.891.0328,4.0134.1161,7.5033-.5038,9.247-4.707,1.6773-4.042-.3941-6.8049-3.0815-9.489Q310.74,199.0852,259.4163,147.746c-4.9875-4.9838-8.5592-4.9947-13.5248-.0322q-50.6851,50.6528-101.37,101.3059c-2.7686,2.7618-4.5515,5.6809-2.9808,9.5545,1.5905,3.9221,5.0368,4.726,8.8752,4.6778,4.458-.0562,8.9172-.0131,13.8074-.0131v6.3342q0,37.7019.0052,75.4036a49.4858,49.4858,0,0,0,.132,5.1452c.5766,5.4861,4.6269,9.8059,10.1047,9.8848C189.116,360.2182,203.7716,360.079,219.1562,360.079Z" transform="translate(0.0278 0.0278)"/>
</svg>
