<?xml version="1.0" encoding="utf-8"?>
<!-- Generator: Adobe Illustrator 23.0.1, SVG Export Plug-In . SVG Version: 6.00 Build 0)  -->
<svg version="1.1" id="Layer_1" xmlns="http://www.w3.org/2000/svg" xmlns:xlink="http://www.w3.org/1999/xlink" x="0px" y="0px"
	 viewBox="0 0 506.7443 506.7433" style="enable-background:new 0 0 506.7443 506.7433;" xml:space="preserve">
<style type="text/css">
	.st0{fill:#FFFFFF;}
</style>
<title>icon_home</title>
<path d="M0.0001,253.3822C-0.1362,113.5127,113.1875,0.125,253.2402,0.0001c139.9557-0.1247,253.1028,112.8468,253.503,253.11
	c0.3993,139.9111-113.3843,253.7583-253.4915,253.6334C113.4112,506.7701,0.0266,393.4284,0.0001,253.588
	C0,253.5194,0.0001,253.4508,0.0001,253.3822z"/>
<path class="st0" d="M253.3902,325.4699c-39.8871,0-72.3383-32.4512-72.3383-72.3383s32.4512-72.3383,72.3383-72.3383
	s72.3383,32.4512,72.3383,72.3383S293.2773,325.4699,253.3902,325.4699z M253.3902,202.4946
	c-27.9212,0-50.6371,22.7158-50.6371,50.6371s22.7158,50.6371,50.6371,50.6371s50.6371-22.7158,50.6371-50.6371
	S281.3115,202.4946,253.3902,202.4946z M416.1494,242.281h-18.4911c-5.3-71.1428-62.2747-128.1174-133.4175-133.4175V90.3725
	c0-5.9896-4.8611-10.8506-10.8506-10.8506c-5.9896,0-10.8506,4.8611-10.8506,10.8506v18.4911
	c-71.1428,5.3-128.1174,62.2747-133.4175,133.4175H90.631c-5.9896,0-10.8506,4.8611-10.8506,10.8506
	c0,5.9896,4.8611,10.8506,10.8506,10.8506h18.4911c5.3,71.1428,62.2747,128.1174,133.4175,133.4175v18.4911
	c0,5.9895,4.8611,10.8506,10.8506,10.8506c5.9895,0,10.8506-4.8611,10.8506-10.8506v-18.4911
	c71.1428-5.3,128.1174-62.2747,133.4175-133.4175h18.4911c5.9896,0,10.8506-4.8611,10.8506-10.8506
	C427,247.1421,422.1389,242.281,416.1494,242.281z M264.2408,375.6202v-10.3664c0-5.9896-4.8611-10.8506-10.8506-10.8506
	c-5.9896,0-10.8506,4.8611-10.8506,10.8506v10.3664c-59.1679-5.1978-106.4402-52.47-111.6379-111.6379h10.3664
	c5.9896,0,10.8506-4.8611,10.8506-10.8506c0-5.9895-4.8611-10.8506-10.8506-10.8506h-10.3664
	c5.1977-59.1679,52.47-106.4402,111.6379-111.6379v10.3664c0,5.9896,4.8611,10.8506,10.8506,10.8506
	c5.9895,0,10.8506-4.8611,10.8506-10.8506v-10.3664c59.1679,5.1977,106.4402,52.47,111.6379,111.6379h-10.3664
	c-5.9896,0-10.8506,4.8611-10.8506,10.8506c0,5.9896,4.8611,10.8506,10.8506,10.8506h10.3664
	C370.681,323.1502,323.4088,370.4224,264.2408,375.6202z"/>
</svg>
