<?xml version="1.0" encoding="utf-8"?>
<!-- Generator: Adobe Illustrator 23.0.1, SVG Export Plug-In . SVG Version: 6.00 Build 0)  -->
<svg version="1.1" id="Layer_1" xmlns="http://www.w3.org/2000/svg" xmlns:xlink="http://www.w3.org/1999/xlink" x="0px" y="0px"
	 viewBox="0 0 506.7 506.7" style="enable-background:new 0 0 506.7 506.7;" xml:space="preserve">
<style type="text/css">
	.st0{fill:none;}
</style>
<title>icon_listMenu</title>
<circle class="st0" cx="253.4" cy="253.4" r="253.4"/>
<circle class="st0" cx="253.4" cy="253.4" r="253.4"/>
<g>
	<path d="M363.7,342.3H199.3c-6.8,0-12.3-5.5-12.3-12.3s5.5-12.3,12.3-12.3h164.4c6.8,0,12.3,5.5,12.3,12.3S370.5,342.3,363.7,342.3
		L363.7,342.3L363.7,342.3z"/>
	<path d="M363.7,265.3H199.3c-6.8,0-12.3-5.5-12.3-12.3c0-6.8,5.5-12.3,12.3-12.3c0,0,0,0,0,0h164.4c6.8,0,12.3,5.5,12.2,12.3
		C376,259.8,370.5,265.3,363.7,265.3L363.7,265.3z"/>
	<path d="M363.7,188.3H199.3c-6.8,0-12.3-5.5-12.3-12.3c0-6.8,5.5-12.3,12.3-12.3c0,0,0,0,0,0h164.4c6.8,0,12.3,5.5,12.3,12.3
		C376,182.8,370.5,188.3,363.7,188.3L363.7,188.3z"/>
	<circle cx="146.6" cy="177" r="16.5"/>
	<circle cx="146.6" cy="253.1" r="16.5"/>
	<circle cx="146.6" cy="329.1" r="16.5"/>
</g>
</svg>
