<?xml version="1.0" encoding="utf-8"?>
<!-- Generator: Adobe Illustrator 23.0.1, SVG Export Plug-In . SVG Version: 6.00 Build 0)  -->
<svg version="1.1" id="Layer_1" xmlns="http://www.w3.org/2000/svg" xmlns:xlink="http://www.w3.org/1999/xlink" x="0px" y="0px"
	 viewBox="0 0 40.1 52.4" style="enable-background:new 0 0 40.1 52.4;" xml:space="preserve">
<style type="text/css">
	.st0{fill:#FFFFFF;}
	.st1{fill:#389FFC;stroke:#000000;stroke-miterlimit:10;}
</style>
<path class="st0" d="M20.1,5.4c-8,0-14.4,6.4-14.6,14.3c-0.1,8.2,6.3,14.8,14.6,14.9c7.9,0,14.5-6.6,14.5-14.4
	C34.6,12,28.1,5.4,20.1,5.4z"/>
<path class="st1" d="M20,48.3c-0.6-0.7-1.3-1.4-1.9-2.1c-3-3.4-5.9-6.9-8.5-10.6c-2.1-3-4.1-6.2-5.6-9.6c-1.9-4.2-1.7-8.3,0.2-12.5
	c2.6-5.8,7.1-9.1,13.2-10.2c5.2-0.9,9.8,0.6,13.8,4c3.3,2.7,5.2,6.3,5.9,10.5c0.4,2.7,0,5.3-1,7.7C34.8,29,33,32.1,30.9,35
	c-3.2,4.6-6.8,8.9-10.6,13.1C20.2,48.2,20.1,48.2,20,48.3z"/>
<rect x="14.8" y="14.7" class="st0" width="10.5" height="10.5"/>
</svg>
