<?xml version="1.0" encoding="utf-8"?>
<!-- Generator: Adobe Illustrator 23.0.1, SVG Export Plug-In . SVG Version: 6.00 Build 0)  -->
<svg version="1.1" id="Layer_1" xmlns="http://www.w3.org/2000/svg" xmlns:xlink="http://www.w3.org/1999/xlink" x="0px" y="0px"
	 viewBox="0 0 512 512" style="enable-background:new 0 0 512 512;" xml:space="preserve">
<style type="text/css">
	.st0{fill:#6A7A9B;}
</style>
<path class="st0" d="M265.2,3c67.6,3.7,127.4,37.6,162.3,107.8c34.4,69.2,27.9,137.5-17.2,200.2c-46.1,64.1-94.2,126.7-141.4,189.9
	c-8.5,11.3-19.8,11.3-28.2,0.1c-48.2-64.4-96.9-128.4-144.3-193.4c-69-94.8-33-233.5,72.9-284.3C197.4,9.7,226.2,2.9,265.2,3z
	 M255.1,260.5c35.2-0.1,63.6-28.7,63.5-64c-0.1-35.5-28.3-63.8-63.7-64c-35.7-0.1-64.5,29-64.1,64.7
	C191.1,232.5,219.7,260.6,255.1,260.5z"/>
</svg>
