<?xml version="1.0" encoding="utf-8"?>
<!-- Generator: Adobe Illustrator 23.0.1, SVG Export Plug-In . SVG Version: 6.00 Build 0)  -->
<svg version="1.1" id="Layer_1" xmlns="http://www.w3.org/2000/svg" xmlns:xlink="http://www.w3.org/1999/xlink" x="0px" y="0px"
	 viewBox="0 0 97.7 97.7" style="enable-background:new 0 0 97.7 97.7;" xml:space="preserve">
<style type="text/css">
	.st0{fill:#55C1FF;}
</style>
<g>
	<path class="st0" d="M68.3,15.5c1.1,0.3,2.2,0.6,3.2,1.1c3.5,1.7,5.6,5.5,5.3,9.4c-0.3,3.9-1.9,7.4-4,10.6
		c-1.1,1.7-2.5,3.2-3.8,4.8c-1.1,1.3-2.6,1.3-3.7,0c-3.1-3.4-5.7-7-7.1-11.4c-0.9-2.7-1.2-5.4-0.2-8.2c1.4-3.5,3.9-5.5,7.6-6.2
		c0.1,0,0.2-0.1,0.3-0.1C66.7,15.5,67.5,15.5,68.3,15.5z M67.1,36.4c0.5-0.7,1-1.3,1.4-1.9c1.8-2.5,3.2-5.2,3.6-8.4
		c0.3-2.1-0.4-4-2.2-5.2c-1.8-1.2-3.7-1.2-5.5-0.1c-1.8,1.1-2.6,2.9-2.4,4.9C62.5,29.9,64.6,33.2,67.1,36.4z"/>
	<path class="st0" d="M48.9,51.2c-5.8,0-11.7,0-17.5,0c-3.3,0-6.4-0.8-9-2.9c-4.1-3.4-6-7.7-5-13c1.1-6,4.7-9.6,10.6-11.1
		c0.9-0.2,1.9-0.3,2.9-0.3c7.4,0,14.9,0,22.3,0c1.7,0,2.8,1.3,2.5,2.8c-0.2,1.1-1.1,1.8-2.3,1.8c-0.8,0-1.5,0-2.3,0
		c-6.8,0-13.6,0-20.5,0c-5,0-9,4.2-8.9,9.2c0.1,4.9,4.1,8.8,9.1,8.8c11.9,0,23.9,0,35.8,0c4.7,0,8.5,1.9,11.4,5.7
		c4.6,6.2,2.9,15.4-3.7,19.5c-2.3,1.4-4.8,2.2-7.4,2.2c-7.5,0-15,0-22.5,0c-1.8,0-3-1.5-2.4-3.1c0.4-1,1.2-1.5,2.2-1.5
		c0.6,0,1.1,0,1.7,0c7.1,0,14.2,0,21.2,0c5,0,9-4.2,8.9-9.2c-0.1-4.8-4-8.7-8.8-8.8C61.1,51.1,55,51.2,48.9,51.2L48.9,51.2z"/>
	<path class="st0" d="M20.6,65.3c0-5,3.8-9.3,8.5-9.8c5.1-0.6,9.8,2.8,10.8,7.8c0.4,2.2,0.1,4.4-0.6,6.5c-1.4,4.5-4.1,8.3-7.3,11.7
		c-0.9,1-2.3,1-3.3,0c-3.6-3.8-6.5-8-7.7-13.2C20.9,67.3,20.8,66.3,20.6,65.3z M30.5,76.5c1.1-1.7,2.2-3.3,3.1-4.9
		c1.1-2.1,1.9-4.3,1.8-6.8c-0.1-3.1-3.4-5.4-6.4-4.5c-2.7,0.8-4.2,3.4-3.6,6.4C26.1,70.3,28.1,73.4,30.5,76.5z"/>
</g>
</svg>
