<?xml version="1.0" encoding="utf-8"?>
<!-- Generator: Adobe Illustrator 23.0.1, SVG Export Plug-In . SVG Version: 6.00 Build 0)  -->
<svg version="1.1" id="Layer_1" xmlns="http://www.w3.org/2000/svg" xmlns:xlink="http://www.w3.org/1999/xlink" x="0px" y="0px"
	 viewBox="0 0 97.7 97.7" style="enable-background:new 0 0 97.7 97.7;" xml:space="preserve">
<style type="text/css">
	.st0{opacity:0.5;fill:#FFFFFF;}
</style>
<path class="st0" d="M74.6102,60.8907c-0.2984,2.8347-0.4476,5.5201-1.0443,8.0564c-1.6411,6.7136-8.0564,11.9354-15.0684,11.9354
	c-14.1733,0.1492-28.4957,0.1492-42.669,0c-8.504-0.1492-15.516-7.6088-15.516-16.1128c0-10.5926,0-21.1853,0-31.7779
	c0-9.2499,7.3104-16.4111,16.5603-16.4111c13.2781,0,26.7054,0,39.9835,0c10.2943,0,17.1571,7.012,17.3063,17.1571
	c0,1.0443,0.1492,1.9395,0.1492,3.5806c5.6693-3.2822,11.0402-6.2661,16.262-9.2499c4.9233-2.8347,6.7136-1.7903,6.7136,3.879
	c0,11.4878,0,22.9756,0,34.4634c0,5.0725-1.9395,6.1169-6.2661,3.7298c-5.3709-2.9838-10.7418-6.1169-16.1128-9.2499
	C74.9086,60.7415,74.7594,60.7415,74.6102,60.8907z"/>
<path d="M98,247c-0.3,0.1-0.6,0.1-0.9,0.1c-0.1,0-0.1-0.2-0.2-0.3c0.3-0.1,0.6-0.1,0.9-0.1C97.8,246.7,97.9,246.9,98,247z"/>
</svg>
